<svg xmlns="http://www.w3.org/2000/svg" version="1.1" xmlns:xlink="http://www.w3.org/1999/xlink" xmlns:svgjs="http://svgjs.dev/svgjs" width="1500" height="1500" viewBox="0 0 1500 1500"><rect width="1500" height="1500" fill="#ffffff"></rect><g transform="matrix(0.6666666666666666,0,0,0.6666666666666666,250.00017081513073,187.66666666666674)"><svg viewBox="0 0 320 360" data-background-color="#111111" preserveAspectRatio="xMidYMid meet" height="1687" width="1500" xmlns="http://www.w3.org/2000/svg" xmlns:xlink="http://www.w3.org/1999/xlink"><g id="tight-bounds" transform="matrix(1,0,0,1,0.00005466084189720277,0)"><svg viewBox="0 0 320 360" height="360" width="320"><g><svg></svg></g><g><svg viewBox="0 0 320 360" height="360" width="320"><g><path transform="translate(-119.39272,-98.31927) scale(5.58313,5.58313)" d="M36.7 23.5c0-0.2 0.1-0.4 0.3-0.4 0.2 0 0.4 0.1 0.4 0.4 0.1 0 0.3 0 0.4-0.1 0.4 0 0.8-0.1 1.1 0 0.3 0.1 0.5 0.1 0.8 0.2 0.3 0.1 0.5 0 0.7-0.1 0.4-0.1 0.7-0.3 1.1-0.4 0.2-0.1 0.3-0.1 0.5-0.1 0.2-0.1 0.4-0.1 0.7-0.2 0.5-0.1 1-0.2 1.4-0.4 0.4-0.2 0.8-0.2 1.2-0.3 0.2 0 0.3-0.1 0.5-0.2 0.1 0 0.1-0.1 0.2-0.2 0.2-0.1 0.3-0.2 0.5-0.1 0.1 0.1 0.3 0.1 0.4 0h0.1c0.6 0 1.2-0.1 1.9 0 0.1 0 0.2 0 0.2 0 0.3-0.2 0.7-0.2 1.1-0.2 0.1 0 0.3 0 0.4 0h0.1c0.4 0 0.8 0 1.1 0.1 0.3 0 0.5 0.1 0.8 0.2 0.3 0 0.5 0 0.8 0.1 0.2 0 0.4 0 0.6 0 0.1 0 0.2 0 0.2 0 0.4 0.1 0.8 0.1 1.2 0.1 0.3 0.1 0.6 0.2 1 0.2 0.1 0 0.2 0 0.3 0 0.1 0 0.2 0.1 0.3 0.1l0.1 0.1c0.4 0 0.7 0.2 1.1 0.2 0.1 0 0.3 0 0.4 0.1 0.3 0.2 0.7 0.3 1.1 0.3 0.2 0 0.3 0.1 0.4 0.2 0.3 0.1 0.5 0.2 0.8 0.3 0.2 0.1 0.4 0 0.6 0.1 0.3 0.1 0.7 0.2 1 0.5 0.2 0.2 0.4 0.2 0.7 0.4 0.1 0 0.2 0.1 0.3 0.2 0.3 0.2 0.6 0.4 0.9 0.5 0.1 0 0.2 0.1 0.3 0.1 0.3 0.2 0.6 0.5 1 0.7 0.2 0.1 0.3 0.2 0.5 0.3h0.1c0.3 0.3 0.7 0.5 1 0.8 0.3 0.3 0.5 0.5 0.9 0.7 0 0 0 0 0 0.1 0.1 0.2 0.2 0.3 0.4 0.4 0.2 0.1 0.3 0.2 0.4 0.3 0.3 0.2 0.6 0.4 0.8 0.6 0.1 0.1 0.2 0.2 0.4 0.4 0.1 0.1 0.2 0.2 0.3 0.2 0.4 0.1 0.6 0.4 0.9 0.7 0.2 0.2 0.5 0.5 0.7 0.7 0.1 0.1 0.2 0.3 0.3 0.5 0.2 0.6 0.5 1.2 0.8 1.7 0 0 0 0.1 0.1 0.2v0.1c0.2 0.2 0.3 0.5 0.5 0.7 0.1 0.1 0.1 0.2 0.2 0.3 0.2 0.3 0.3 0.7 0.5 1 0.3 0.5 0.5 1 0.7 1.5v0.1c0.1 0.2 0.2 0.4 0.3 0.7 0 0.2 0.2 0.4 0.3 0.7 0.1 0.5 0.4 1 0.5 1.6 0 0.1 0.1 0.2 0.1 0.4 0.1 0.3 0.2 0.6 0.3 0.9 0 0.1 0.1 0.2 0.2 0.3 0.2 0.2 0.2 0.4 0.2 0.6-0.1 0.4 0 0.8 0.1 1.2 0 0.1 0 0.2 0 0.4 0.1 0.4 0.2 0.9 0.2 1.3 0 0.1 0 0.3 0 0.4 0 0.3 0.1 0.6 0.3 0.9 0 0.1 0.1 0.1 0.1 0.1 0.1 0.1 0.2 0.3 0.3 0.4 0.1 0.1 0.1 0.1 0.2 0.2 0.2 0.2 0.3 0.4 0.3 0.7 0 0.1-0.1 0.3-0.1 0.4 0 0.1 0 0.3 0.1 0.4 0.1 0.1 0.1 0.2 0.1 0.3 0 0.1-0.1 0.2-0.2 0.2v0c-0.1 0.3-0.5 0.4-0.6 0.7-0.1 0.4-0.2 0.8-0.3 1.2-0.1 0.3-0.1 0.5-0.1 0.8 0 0.3-0.1 0.5-0.1 0.8-0.1 0.4-0.2 0.8-0.3 1.2 0 0.2-0.1 0.4-0.1 0.6 0.1 0.1 0.2 0.2 0.3 0.2 0.2 0.2 0.4 0.4 0.6 0.6 0.1 0.1 0.1 0.2 0 0.2-0.1 0.1-0.2 0.1-0.3 0.1-0.1-0.1-0.3-0.2-0.4-0.2-0.1-0.1-0.3-0.2-0.5-0.1 0 0.2-0.1 0.4-0.1 0.5-0.1 0.2-0.2 0.5-0.2 0.7-0.1 0.4-0.3 0.7-0.4 1.1-0.2 0.5-0.4 0.9-0.6 1.3-0.1 0.2-0.2 0.4-0.3 0.6v0c0 0.3-0.3 0.6-0.4 0.9-0.2 0.4-0.4 0.8-0.6 1.3-0.1 0.2-0.2 0.4-0.3 0.5-0.2 0.5-0.4 0.9-0.7 1.3-0.2 0.3-0.4 0.5-0.6 0.6-0.2 0.2-0.4 0.4-0.6 0.6-0.1 0.1-0.2 0.2-0.3 0.3-0.1 0.1-0.1 0.1-0.2 0.2-0.2 0.3-0.5 0.5-0.7 0.8-0.2 0.2-0.3 0.4-0.6 0.6-0.2 0.2-0.4 0.5-0.7 0.6-0.1 0.1-0.2 0.3-0.3 0.4-0.1 0.1-0.2 0.3-0.3 0.4 0 0.2 0.1 0.4 0.1 0.5 0 0.3-0.3 0.4-0.5 0.2-0.3-0.2-0.3-0.2-0.6 0-0.3 0.2-0.6 0.5-1 0.6-0.1 0-0.1 0.1-0.2 0.1-0.2 0.1-0.3 0.3-0.5 0.4-0.2 0.2-0.5 0.3-0.7 0.5-0.1 0.1-0.2 0.1-0.3 0.2-0.3 0.2-0.6 0.3-0.9 0.6-0.1 0.1-0.2 0.1-0.3 0.2 0 0.1 0 0.1 0 0.2 0 0.2-0.2 0.4-0.5 0.3-0.3-0.1-0.5 0-0.8 0-0.3 0.1-0.6 0.3-0.9 0.4-0.1 0-0.2 0.1-0.3 0.2-0.3 0.2-0.6 0.3-0.9 0.4-0.2 0-0.4 0.2-0.6 0.2-0.1 0-0.2 0.1-0.3 0.1h-0.1c-0.4 0.3-0.8 0.5-1.2 0.8-0.1 0-0.1 0.1-0.2 0.2-0.1 0.2-0.2 0.3-0.4 0.3-0.5 0-0.7 0.4-0.6 0.8 0 0.1 0.1 0.2 0.1 0.3 0.1 0.2 0 0.4-0.1 0.5-0.1 0.1-0.4 0.1-0.5-0.1-0.2-0.2-0.3-0.4-0.4-0.7-0.1-0.2-0.3-0.4-0.5-0.5-0.2-0.1-0.4-0.1-0.6 0-0.1 0-0.1 0.1-0.2 0.1-0.2 0.2-0.5 0.3-0.8 0.2-0.1 0-0.3 0-0.3 0.1-0.1 0.1-0.1 0.3 0 0.4 0.2 0.2 0.1 0.4 0.1 0.7 0 0.4-0.3 0.6-0.7 0.4-0.1-0.1-0.2-0.1-0.3-0.2-0.1 0-0.1-0.1-0.1-0.2-0.1-0.1-0.1-0.3-0.2-0.5-0.2 0.1-0.4 0.1-0.6 0.2-0.1 0-0.2 0.1-0.3 0.1-0.3 0-0.4 0-0.5-0.3-0.1-0.3-0.3-0.3-0.5-0.4-0.4-0.1-0.9-0.1-1.3-0.3h-0.1c-0.4-0.3-0.8-0.3-1.3-0.3-0.3 0-0.6 0.1-0.9 0.1-0.3 0-0.5 0.1-0.7 0.3-0.1 0.1-0.2 0.2-0.3 0.2-0.1-0.1-0.1-0.2-0.2-0.3v-0.1c0-0.1-0.1-0.2-0.2-0.1-0.2 0.1-0.4-0.1-0.6-0.2-0.1-0.1-0.3-0.3-0.3-0.5-0.1-0.1-0.2-0.2-0.3-0.2-0.2 0-0.5-0.1-0.7-0.1-0.1 0-0.2 0-0.2-0.1-0.1-0.1-0.2-0.1-0.4-0.1-0.1 0-0.1-0.1-0.2-0.1 0.2 0.2 0.3 0.4 0.4 0.6 0 0.1 0.1 0.1 0.1 0.2 0.1 0.2 0 0.3-0.3 0.3-0.2 0-0.2 0-0.3 0.1 0 0.2 0 0.3 0 0.5 0 0.1 0 0.2-0.2 0.3 0 0-0.1 0-0.1 0.1-0.1 0.1-0.1 0.2 0 0.3 0.3 0.2 0.5 0.3 0.8 0.4 0.3 0 0.3 0.2 0.4 0.4 0.1 0.2 0 0.3-0.1 0.5-0.2 0.2-0.4 0.4-0.6 0.6-0.3 0.1-0.5 0.4-0.8 0.4-0.2 0-0.4-0.1-0.5-0.3-0.1-0.5-0.1-0.9 0.1-1.4 0-0.1 0.1-0.2 0-0.3-0.9 0-0.9-0.2-0.9-0.3 0-0.2 0.1-0.3 0.1-0.5 0.1-0.2 0-0.3-0.3-0.4-0.1 0-0.2 0-0.3 0-0.1 0-0.1-0.1-0.3-0.1 0.2-0.1 0.3-0.1 0.5-0.2-0.1-0.4-0.2-0.7-0.5-0.9-0.1-0.1-0.2-0.2-0.2-0.4 0-0.3-0.2-0.5-0.3-0.7-0.2-0.3-0.6-0.4-0.9-0.4-0.3-0.1-0.5-0.1-0.8-0.2-0.3-0.1-0.6-0.4-0.9-0.5-0.1-0.1-0.2-0.2-0.4-0.3-0.4-0.2-0.7-0.5-1-0.8-0.2-0.1-0.3-0.3-0.5-0.4-0.2-0.2-0.3-0.4-0.5-0.5-0.2-0.2-0.4-0.4-0.7-0.6-0.3-0.2-0.5-0.5-0.8-0.8-0.2-0.3-0.5-0.5-0.8-0.7-0.1 0-0.2 0-0.3 0-0.1 0-0.2 0.1-0.3 0.1-0.3 0.1-0.5 0.3-0.8 0.4 0.1-0.1 0.1-0.1 0-0.3-0.1-0.1-0.2-0.2-0.3-0.2-0.2 0-0.4 0-0.6 0-0.4 0-0.8 0.1-1.2 0.1-0.3 0-0.7 0.1-1 0.2 0.1 0.2 0.1 0.3 0.2 0.5-0.2 0.1-0.4 0.1-0.6 0.1-0.1 0-0.3 0.1-0.4 0.2-0.1 0-0.1 0.1-0.2 0-0.2-0.1-0.4 0-0.6 0.1h-0.1c0 0 0-0.1 0.1-0.1 0.1-0.1 0.2-0.2 0.3-0.3 0.1-0.1 0.2-0.1 0.4-0.2-0.1-0.1-0.1-0.2-0.1-0.2-0.1-0.1-0.2-0.1-0.3 0-0.1 0.1-0.2 0.2-0.3 0.3-0.1 0.1-0.2 0.1-0.3 0-0.1-0.1-0.1-0.2 0-0.3 0-0.1 0.1-0.2 0.2-0.3 0.1-0.1 0.1-0.2 0.2-0.3-0.2-0.2-0.3-0.4-0.5-0.5-0.3-0.2-0.6-0.5-0.8-0.8-0.2-0.4-0.5-0.7-0.9-0.9-0.1-0.1-0.2-0.2-0.3-0.3-0.1-0.1-0.1-0.1-0.2-0.2-0.3 0.1-0.5 0.3-0.8 0.4-0.1 0-0.1 0.1-0.2 0.2-0.1 0.2-0.3 0.2-0.5 0.2-0.1 0-0.2-0.1-0.1-0.2 0.1-0.2 0.2-0.4 0.5-0.3 0 0 0.1 0 0.1-0.1 0.2-0.2 0.4-0.5 0.7-0.7-0.1-0.3-0.3-0.5-0.4-0.7-0.1-0.1-0.1-0.2-0.1-0.4 0-0.1 0-0.1-0.1-0.2 0 0-0.1 0-0.2 0.1-0.1 0.1-0.3 0.2-0.5 0 0-0.1 0-0.2 0.1-0.3l0.1-0.1c0.3-0.1 0.3-0.4 0.3-0.7v-0.1c-0.1-0.2-0.1-0.3 0.1-0.5 0.3-0.2 0.6-0.6 0.7-0.9 0.1-0.2 0.3-0.3 0.5-0.5 0.2-0.2 0.4-0.4 0.5-0.7h0.1c0.4 0.1 0.5-0.2 0.7-0.5 0-0.1 0-0.2 0.1-0.2 0.2-0.2 0.2-0.4 0.1-0.7 0-0.1-0.1-0.3-0.1-0.4 0-0.1 0-0.1-0.1-0.2-0.3-0.2-0.3-0.4 0-0.6 0.2-0.1 0.2-0.3 0.3-0.4 0.1-0.2 0.1-0.4 0.1-0.7-0.1-0.3-0.1-0.7-0.2-1-0.1-0.4-0.2-0.9-0.3-1.3 0-0.1 0-0.1 0-0.2 0-0.3 0-0.5-0.1-0.8-0.1-0.1-0.1-0.3-0.1-0.4-0.1-0.3-0.2-0.5-0.5-0.6-0.3-0.2-0.7-0.3-1-0.5-0.1-0.1-0.2 0-0.3 0.1-0.1 0.2-0.3 0.4-0.4 0.6-0.1 0.1-0.2 0.3-0.3 0.5-0.2 0.2-0.6 0.4-0.9 0.1-0.1-0.2-0.2-0.3 0-0.5 0.2-0.3 0.4-0.6 0.7-0.8 0.1-0.1 0.2-0.3 0.3-0.4 0.1-0.2 0.1-0.4 0.1-0.6-0.1-0.4-0.2-0.8-0.2-1.3 0-0.5 0-0.9 0.1-1.4 0.1-0.2 0.1-0.5 0.2-0.7 0-0.1 0.1-0.3 0.2-0.4 0.2-0.2 0.4-0.4 0.5-0.7 0.1-0.3 0.3-0.6 0.3-0.9 0-0.1 0.1-0.2 0.1-0.3 0-0.1 0.1-0.3 0.1-0.4-0.1-0.3 0-0.5 0.1-0.7 0.1-0.2 0.2-0.5 0.3-0.7 0.2-0.4 0.2-0.9 0.6-1.3 0.1-0.2 0.2-0.4 0.3-0.6 0.1-0.4 0.3-0.7 0.5-1 0.1-0.1 0.1-0.1 0.1-0.2 0.1-0.3 0.3-0.6 0.5-0.9 0.2-0.3 0.2-0.6 0.3-0.9 0-0.1 0-0.2 0.1-0.3 0.3-0.3 0.2-0.7 0.1-1.1-0.2-0.5-0.3-1-0.2-1.5 0-0.1 0-0.2 0.1-0.2 0.1-0.2 0.1-0.3 0.2-0.5v-0.1c0.2-0.2 0.4-0.5 0.7-0.6 0.4-0.2 0.8-0.3 1.3-0.4 0.4 0 0.8-0.2 1.1-0.6 0-0.1 0.1-0.1 0.2-0.2l0.1-0.1c0.1-0.2 0.2-0.3 0.3-0.4 0.2-0.2 0.4-0.5 0.6-0.7 0.2-0.2 0.4-0.5 0.7-0.8l0.1-0.1c0.2-0.2 0.4-0.4 0.6-0.5 0.2-0.2 0.4-0.4 0.6-0.6 0.2-0.2 0.3-0.4 0.5-0.6 0.2-0.1 0.4-0.3 0.6-0.5 0.2-0.2 0.4-0.4 0.5-0.5 0.2-0.2 0.5-0.4 0.7-0.5 0.2-0.1 0.4-0.2 0.5-0.5 0.1-0.3 0.2-0.5 0.3-0.8 0-0.2 0.1-0.4 0.2-0.6 0.1 0 0.2 0 0.4-0.1-0.1-0.1-0.2-0.1-0.2-0.2 0-0.1 0.1-0.2 0.1-0.2 0-0.1 0.1-0.2 0.1-0.3 0 0 0.1 0 0.1-0.1 0 0 0.1 0 0.1-0.1-0.2 0.1-0.3 0-0.4-0.1 0.1 0.1 0.2 0.1 0.4 0.2 0 0 0.1 0 0.1-0.1 0-0.1 0-0.2 0-0.2 0 0-0.1 0-0.2 0-0.1 0-0.2 0.1-0.3 0.1zM54 70.5c0-0.1-0.1-0.1-0.1-0.2-0.1-0.2 0-0.3 0.1-0.4 0.1-0.1 0.2-0.1 0.4-0.1 0.2 0.1 0.3 0.2 0.3 0.4 0 0.1 0 0.3 0 0.4 0.1 0.4 0.1 0.4 0.5 0.4 0.2 0 0.4 0 0.6 0 0.4-0.1 0.8-0.3 1.2-0.4 0.4-0.1 0.8-0.2 1.2-0.3 0.1 0 0.2 0 0.4 0 0.4 0.1 0.7 0 1-0.2 0.1-0.1 0.3-0.1 0.4-0.2 0.2-0.1 0.4-0.1 0.6-0.2 0.5-0.3 1-0.5 1.4-0.8 0.3-0.2 0.6-0.4 0.9-0.6 0.3-0.2 0.6-0.4 0.9-0.6 0.2-0.1 0.5-0.3 0.7-0.5 0.4-0.3 0.7-0.6 1.1-0.8 0.2-0.1 0.3-0.2 0.4-0.3 0.2-0.1 0.3-0.3 0.5-0.4 0.1-0.1 0.2-0.2 0.4-0.3 0.1-0.1 0.1-0.1 0.1-0.2 0.3-0.2 0.6-0.6 0.8-0.9 0.2-0.2 0.4-0.4 0.6-0.7 0.3-0.3 0.5-0.7 0.8-1.1 0.2-0.2 0.4-0.5 0.5-0.7 0.2-0.4 0.4-0.8 0.7-1.1v-0.1c0.2-0.4 0.4-0.8 0.6-1.2 0.3-0.5 0.5-1.1 0.8-1.6 0.1-0.2 0.2-0.4 0.2-0.6 0.2-0.4 0.3-0.8 0.4-1.2 0-0.1 0-0.1 0.1-0.2 0.3-0.6 0.5-1.2 0.6-1.9 0.1-0.4 0.2-0.8 0.3-1.2 0.2-0.6 0.2-1.1 0.3-1.7 0.1-0.4 0.1-0.9 0.1-1.3 0.1-0.6 0.1-1.3 0-1.9 0-0.5-0.1-1.1-0.1-1.6 0-0.5-0.1-0.9-0.2-1.4-0.1-0.5-0.2-0.9-0.3-1.4-0.2-0.4-0.3-0.8-0.4-1.3-0.1-0.4-0.3-0.7-0.3-1.1 0-0.3-0.1-0.6-0.4-0.7-0.3-0.1-0.5-0.2-0.8-0.4-0.6-0.4-0.9-0.9-0.8-1.5 0-0.3 0.1-0.7 0.2-1 0.1-0.3 0.2-0.6 0-0.8-0.1-0.3-0.3-0.5-0.4-0.7-0.2-0.3-0.3-0.5-0.5-0.7-0.2-0.4-0.4-0.8-0.7-1.1-0.4-0.5-0.7-1-1.2-1.4l-0.1-0.1c-0.3-0.4-0.6-0.8-1-1.1-0.2-0.2-0.4-0.4-0.6-0.5-0.1-0.1-0.2-0.2-0.4-0.3-0.3-0.2-0.6-0.3-0.8-0.5-0.3-0.3-0.7-0.5-1-0.7 0 0-0.1 0-0.1-0.1-0.4-0.2-0.7-0.3-1.1-0.5-0.4-0.2-0.8-0.3-1.2-0.3-0.1 0-0.1 0-0.2 0-0.1-0.1-0.3-0.1-0.4-0.1-0.1 0-0.1 0-0.2 0-0.2-0.1-0.5 0-0.7 0-0.4 0.1-0.8 0.1-1.2-0.1-0.5-0.2-0.9-0.4-1.3-0.6-0.3-0.2-0.5-0.4-0.8-0.6-0.6-0.5-1.2-1.1-1.9-1.6 0.1-0.5-0.1-0.6-0.5-0.6-0.2 0-0.4 0.1-0.6 0.2-0.1 0.1-0.1 0.1-0.2 0.2-0.3 0.2-0.5 0.5-0.8 0.7-0.5 0.3-0.7 0.2-1.1 0-0.1-0.1-0.2-0.2-0.3-0.3-0.2-0.2-0.4-0.5-0.5-0.7-0.2-0.4-0.6-0.4-1-0.4-0.2 0-0.5 0.1-0.7 0.1-0.4 0-0.8 0.2-1 0.5-0.2 0.3-0.4 0.6-0.7 0.9-0.1 0.1-0.3 0.2-0.4 0.4-0.2 0.2-0.4 0.2-0.6 0-0.1-0.1-0.2-0.1-0.3-0.2-0.1 0.1-0.2 0.2-0.2 0.3-0.1 0.2-0.2 0.4-0.3 0.7-0.1 0.3-0.3 0.6-0.5 0.8-0.1 0.1-0.1 0.1-0.2 0.2-0.1 0.2-0.4 0.3-0.6 0.3-0.2 0.2-0.4 0.5-0.5 0.7-0.1 0.2-0.2 0.4-0.3 0.7-0.1 0.1-0.1 0.3-0.2 0.4-0.1 0.2-0.1 0.3-0.1 0.5 0.1 0.3-0.1 0.4-0.4 0.5-0.2 0-0.2 0-0.3 0.2 0 0.3 0.1 0.5 0.2 0.8 0.1 0.1 0.2 0.3 0.2 0.4 0 0.2 0.1 0.3 0.3 0.4 0.1 0.1 0.2 0.2 0.3 0.2 0.1 0 0.1 0.1 0.2 0.1 0.1 0.1 0.2 0 0.2-0.1 0.1-0.3 0.2-0.6 0.2-0.9 0.1-0.4 0.1-0.7 0.2-1.1 0.1-0.2 0.2-0.3 0.3-0.4 0 0 0.1 0 0.2 0v0.1c-0.1 0.5-0.3 1.1-0.4 1.6-0.1 0.2-0.1 0.4-0.2 0.6 0 0.1-0.1 0.2-0.2 0.2-0.2 0.1-0.4 0.2-0.6 0.2-0.1 0-0.2 0-0.3 0-0.2-0.1-0.4-0.3-0.6-0.4-0.1-0.1-0.2-0.2-0.3-0.3-0.1-0.2-0.2-0.4-0.3-0.6-0.1-0.2-0.2-0.3-0.4-0.4-0.1-0.1-0.2-0.1-0.3-0.2-0.2-0.2-0.4-0.3-0.7-0.3-0.1 0-0.3 0-0.4 0-0.1 0-0.3 0.1-0.4 0.2-0.2 0.1-0.3 0.1-0.5 0-0.5-0.2-1-0.1-1.5 0.1-0.2 0.1-0.4 0.2-0.6 0.2-0.5 0-0.9 0-1.4 0-0.5 0-0.9-0.1-1.4-0.2-0.2 0-0.4 0-0.6 0-0.4 0.1-0.5 0.4-0.4 0.8 0.1 0.4 0.2 0.9 0.2 1.3 0 0.3 0 0.6 0 0.9 0 0.2 0 0.3 0 0.5 0 0.3-0.1 0.6-0.1 0.9-0.1 0.6-0.4 1.1-0.8 1.5-0.3 0.3-0.7 0.6-1.1 0.7-0.2 0.1-0.4 0.2-0.7 0.3-0.5 0.2-0.9 0.6-1.2 1.1-0.1 0.2-0.2 0.4-0.3 0.6-0.2 0.3-0.3 0.5-0.5 0.8-0.1 0.2-0.3 0.4-0.4 0.6-0.1 0.2-0.3 0.3-0.3 0.5-0.2 0.4-0.3 0.8-0.5 1.2-0.1 0.2-0.1 0.5-0.2 0.7-0.2 0.4-0.2 0.8-0.2 1.3 0 0.1 0 0.2 0 0.4 0 0.5-0.1 1.1-0.1 1.6 0 0.5 0 1 0.1 1.5 0 0.2 0 0.5 0 0.7 0 0.4 0.1 0.9 0.1 1.3 0 0.4 0 0.9 0.2 1.3v0.1c0.1 0.4 0.1 0.8 0.2 1.2 0 0.1 0 0.2 0.1 0.3 0.2 0.6 0.3 1.1 0.5 1.7 0.1 0.4 0.3 0.8 0.4 1.2 0.1 0.4 0.5 0.8 0.6 1.3v0c0.3 0.6 0.6 1.2 1 1.8 0.1 0.2 0.3 0.4 0.4 0.6 0.2 0.3 0.3 0.6 0.5 0.8 0.1 0.2 0.3 0.4 0.4 0.5 0.1 0.2 0.2 0.4 0.4 0.6 0.2 0.2 0.4 0.5 0.6 0.7 0.3 0.5 0.7 0.9 1.1 1.2 0.2 0.2 0.4 0.3 0.6 0.5 0.1 0.1 0.2 0.1 0.2 0.2 0.1 0.1 0.2 0.2 0.4 0.3 0.8 0.4 1.4 1 2.1 1.6 0.3 0.3 0.6 0.6 1 0.8 0.4 0.3 0.7 0.6 1.2 0.7 0 0 0.1 0 0.1 0.1 0.2 0.2 0.5 0.3 0.7 0.4 0.4 0.2 0.9 0.4 1.3 0.6 0.1 0.1 0.3 0.1 0.4 0.2 0.3 0.1 0.6 0.2 0.9 0.3 0.3 0.1 0.5 0.2 0.8 0.2h0.1c0.2 0.1 0.3 0.1 0.5 0 0.1 0 0.2 0 0.2 0.1 0 0.1 0.1 0.1 0.2 0.1 0.1 0 0.2 0 0.4 0 0.1-0.1 0.1-0.2 0.2-0.4 0.1 0.1 0.2 0.1 0.2 0.1 0.1 0.2 0.3 0.2 0.5 0.2h0.1c0.2 0 0.3 0 0.4-0.1 0-0.1 0.2-0.1 0.3-0.1 0.3 0.1 0.6 0.1 0.9 0.2 0.2 0.1 0.5 0.1 0.6-0.1 0.1-0.1 0.2-0.2 0.4-0.1 0.2 0.1 0.3 0.1 0.5 0 0.1 0 0.2 0 0.2 0 0.3 0.1 0.5 0.1 0.8 0.2 0.4 0.1 0.4 0.1 0.7-0.2 0.1-0.1 0.3-0.1 0.4 0 0.1 0.2 0.1 0.3 0.1 0.5 0.1 0 0.1 0 0.2-0.1 0-0.2 0.1-0.2 0.3-0.3 0.1 0.1 0.1 0.1 0.2 0.1 0.2 0.2 0.3 0.2 0.4-0.1 0-0.1 0-0.2 0.1-0.2 0.1 0 0.2 0.1 0.2 0.1 0.1 0.2 0.3 0.3 0.4 0.5 0.2 0.2 0.5 0.2 0.6 0 0.1-0.1 0.2-0.1 0.3-0.1 0-0.1 0-0.2 0-0.3 0.3 0.2 0.2 0.2 0.1 0.2zM37.4 23.8c0.3 0.1 0.5 0.1 0.6-0.1-0.2 0.1-0.4-0.1-0.6 0.1z" fill="#000000" fill-rule="nonzero" stroke="none" stroke-width="1" stroke-linecap="butt" stroke-linejoin="miter" stroke-miterlimit="10" stroke-dasharray="" stroke-dashoffset="0" font-family="none" font-weight="none" font-size="none" text-anchor="none" style="mix-blend-mode: normal" data-fill-palette-color="tertiary"></path></g><g transform="matrix(1,0,0,1,64,102.20719929583308)"><svg viewBox="0 0 192 155.58560140833384" height="155.58560140833384" width="192"><g><svg viewBox="0 0 192 155.58560140833384" height="155.58560140833384" width="192"><g transform="matrix(1,0,0,1,0,88.54499383748646)"><svg viewBox="0 0 192 67.04060757084738" height="67.04060757084738" width="192"><g id="textblocktransform"><svg viewBox="0 0 192 67.04060757084738" height="67.04060757084738" width="192" id="textblock"><g><svg viewBox="0 0 192 39.99133261105092" height="39.99133261105092" width="192"><g transform="matrix(1,0,0,1,0,0)"><svg width="192" viewBox="0.4 -37.7 184.57999999999998 38.45" height="39.99133261105092" data-palette-color="#f70f03"><path d="M0.4-34.55L21.95-34.55 21.25-29.55 14.15-29.55 14.15 0 7.8 0 7.8-29.55 0.4-29.55 0.4-34.55ZM36.5-27.1Q37.65-27.1 38.55-26.75L38.55-26.75 37.55-20.85Q36.55-21.1 35.7-21.1L35.7-21.1Q33.8-21.1 32.7-19.45 31.6-17.8 31-14.55L31-14.55 31 0 24.85 0 24.85-26.45 30.2-26.45 30.65-21.85Q32.5-27.1 36.5-27.1L36.5-27.1ZM60.25-13.85Q60.25-13.4 60.09-11.3L60.09-11.3 46.45-11.3Q46.65-7.2 47.87-5.58 49.09-3.95 51.34-3.95L51.34-3.95Q52.9-3.95 54.15-4.48 55.4-5 56.84-6.15L56.84-6.15 59.4-2.65Q55.9 0.75 51 0.75L51 0.75Q45.8 0.75 43.02-2.85 40.25-6.45 40.25-13L40.25-13Q40.25-19.55 42.9-23.35 45.55-27.15 50.4-27.15L50.4-27.15Q55.05-27.15 57.65-23.78 60.25-20.4 60.25-13.85L60.25-13.85ZM54.25-15.3L54.25-15.65Q54.25-19.4 53.34-21.13 52.45-22.85 50.45-22.85L50.45-22.85Q48.59-22.85 47.62-21.18 46.65-19.5 46.45-15.3L46.45-15.3 54.25-15.3ZM76.89-27.15Q79.74-27.15 81.39-25.1 83.04-23.05 83.04-19.6L83.04-19.6 83.04 0 76.89 0 76.89-18.9Q76.89-20.8 76.37-21.63 75.84-22.45 74.84-22.45L74.84-22.45Q72.74-22.45 70.69-18.5L70.69-18.5 70.69 0 64.54 0 64.54-26.45 69.89-26.45 70.34-23Q71.69-25.1 73.22-26.13 74.74-27.15 76.89-27.15L76.89-27.15ZM101.54-37.7L107.69-37.05 107.69 0 102.24 0 101.94-3.05Q99.59 0.75 95.89 0.75L95.89 0.75Q91.79 0.75 89.62-2.93 87.44-6.6 87.44-13.2L87.44-13.2Q87.44-17.4 88.57-20.58 89.69-23.75 91.69-25.45 93.69-27.15 96.29-27.15L96.29-27.15Q99.49-27.15 101.54-24.5L101.54-24.5 101.54-37.7ZM97.64-3.9Q98.79-3.9 99.72-4.7 100.64-5.5 101.54-7L101.54-7 101.54-19.85Q99.94-22.55 97.89-22.55L97.89-22.55Q93.84-22.55 93.84-13.25L93.84-13.25Q93.84-8.2 94.84-6.05 95.84-3.9 97.64-3.9L97.64-3.9ZM135.24 0L128.84 0 128.84-15.5 119.89-15.5 119.89 0 113.54 0 113.54-34.55 119.89-34.55 119.89-20.6 128.84-20.6 128.84-34.55 135.24-34.55 135.24 0ZM159.19-26.45L159.19 0 153.84 0 153.53-3.35Q152.28-1.3 150.74-0.28 149.19 0.75 147.13 0.75L147.13 0.75Q144.24 0.75 142.56-1.3 140.88-3.35 140.88-6.65L140.88-6.65 140.88-26.45 147.03-26.45 147.03-7Q147.03-3.9 149.13-3.9L149.13-3.9Q150.34-3.9 151.28-4.83 152.24-5.75 153.03-7.45L153.03-7.45 153.03-26.45 159.19-26.45ZM177.03-27.15Q180.88-27.15 182.93-23.65 184.98-20.15 184.98-13.25L184.98-13.25Q184.98-6.75 182.68-3 180.38 0.75 176.38 0.75L176.38 0.75Q174.63 0.75 173.18-0.13 171.73-1 170.68-2.55L170.68-2.55 170.33 0 164.88 0 164.88-37 171.03-37.65 171.03-23.6Q172.08-25.3 173.61-26.23 175.13-27.15 177.03-27.15L177.03-27.15ZM174.73-3.9Q176.58-3.9 177.61-6 178.63-8.1 178.63-13.25L178.63-13.25Q178.63-18.6 177.71-20.58 176.78-22.55 175.08-22.55L175.08-22.55Q173.93-22.55 172.88-21.6 171.83-20.65 171.03-19.1L171.03-19.1 171.03-6.7Q171.68-5.45 172.66-4.67 173.63-3.9 174.73-3.9L174.73-3.9Z" opacity="1" transform="matrix(1,0,0,1,0,0)" fill="#000000" class="wordmark-text-0" data-fill-palette-color="primary" id="text-0"></path></svg></g></svg></g><g transform="matrix(1,0,0,1,0,49.43232644853738)"><svg viewBox="0 0 192 17.60828112231" height="17.60828112231" width="192"><g transform="matrix(1,0,0,1,0,0)"><svg width="192" viewBox="2.35 -39.65 550.5799999999999 50.5" height="17.60828112231" data-palette-color="#f70f03"><path d="M7.1-21.05L3.05-21.05 2.35-34.55 7.8-34.55 7.1-21.05ZM16.7-21.05L12.65-21.05 11.95-34.55 17.4-34.55 16.7-21.05ZM48.25-34.55L54.15-34.55 49.3 0 40.95 0 37.25-27.8 33.4 0 25.2 0 20.45-34.55 26.6-34.55 29.8-5.1 33.95-34.55 40.7-34.55 44.75-5.1 48.25-34.55ZM70.05-27.15Q72.89-27.15 74.55-25.1 76.19-23.05 76.19-19.6L76.19-19.6 76.19 0 70.05 0 70.05-18.9Q70.05-20.8 69.52-21.63 69-22.45 68-22.45L68-22.45Q65.89-22.45 63.84-18.5L63.84-18.5 63.84 0 57.7 0 57.7-37 63.84-37.65 63.84-23.3Q65.09-25.25 66.57-26.2 68.05-27.15 70.05-27.15L70.05-27.15ZM100.59-13.85Q100.59-13.4 100.44-11.3L100.44-11.3 86.79-11.3Q86.99-7.2 88.22-5.58 89.44-3.95 91.69-3.95L91.69-3.95Q93.24-3.95 94.49-4.48 95.74-5 97.19-6.15L97.19-6.15 99.74-2.65Q96.24 0.75 91.34 0.75L91.34 0.75Q86.14 0.75 83.37-2.85 80.59-6.45 80.59-13L80.59-13Q80.59-19.55 83.24-23.35 85.89-27.15 90.74-27.15L90.74-27.15Q95.39-27.15 97.99-23.78 100.59-20.4 100.59-13.85L100.59-13.85ZM94.59-15.3L94.59-15.65Q94.59-19.4 93.69-21.13 92.79-22.85 90.79-22.85L90.79-22.85Q88.94-22.85 87.97-21.18 86.99-19.5 86.79-15.3L86.79-15.3 94.59-15.3ZM116.54-27.1Q117.69-27.1 118.59-26.75L118.59-26.75 117.59-20.85Q116.59-21.1 115.74-21.1L115.74-21.1Q113.84-21.1 112.74-19.45 111.64-17.8 111.04-14.55L111.04-14.55 111.04 0 104.89 0 104.89-26.45 110.24-26.45 110.69-21.85Q112.54-27.1 116.54-27.1L116.54-27.1ZM140.29-13.85Q140.29-13.4 140.14-11.3L140.14-11.3 126.49-11.3Q126.69-7.2 127.91-5.58 129.14-3.95 131.39-3.95L131.39-3.95Q132.94-3.95 134.19-4.48 135.44-5 136.89-6.15L136.89-6.15 139.44-2.65Q135.94 0.75 131.04 0.75L131.04 0.75Q125.84 0.75 123.06-2.85 120.29-6.45 120.29-13L120.29-13Q120.29-19.55 122.94-23.35 125.59-27.15 130.44-27.15L130.44-27.15Q135.09-27.15 137.69-23.78 140.29-20.4 140.29-13.85L140.29-13.85ZM134.29-15.3L134.29-15.65Q134.29-19.4 133.39-21.13 132.49-22.85 130.49-22.85L130.49-22.85Q128.64-22.85 127.66-21.18 126.69-19.5 126.49-15.3L126.49-15.3 134.29-15.3ZM151.98-34.55L173.53-34.55 172.83-29.55 165.73-29.55 165.73 0 159.38 0 159.38-29.55 151.98-29.55 151.98-34.55ZM188.08-27.1Q189.23-27.1 190.13-26.75L190.13-26.75 189.13-20.85Q188.13-21.1 187.28-21.1L187.28-21.1Q185.38-21.1 184.28-19.45 183.18-17.8 182.58-14.55L182.58-14.55 182.58 0 176.43 0 176.43-26.45 181.78-26.45 182.23-21.85Q184.08-27.1 188.08-27.1L188.08-27.1ZM211.83-13.85Q211.83-13.4 211.68-11.3L211.68-11.3 198.03-11.3Q198.23-7.2 199.45-5.58 200.68-3.95 202.93-3.95L202.93-3.95Q204.48-3.95 205.73-4.48 206.98-5 208.43-6.15L208.43-6.15 210.98-2.65Q207.48 0.75 202.58 0.75L202.58 0.75Q197.38 0.75 194.6-2.85 191.83-6.45 191.83-13L191.83-13Q191.83-19.55 194.48-23.35 197.13-27.15 201.98-27.15L201.98-27.15Q206.63-27.15 209.23-23.78 211.83-20.4 211.83-13.85L211.83-13.85ZM205.83-15.3L205.83-15.65Q205.83-19.4 204.93-21.13 204.03-22.85 202.03-22.85L202.03-22.85Q200.18-22.85 199.2-21.18 198.23-19.5 198.03-15.3L198.03-15.3 205.83-15.3ZM228.48-27.15Q231.33-27.15 232.98-25.1 234.63-23.05 234.63-19.6L234.63-19.6 234.63 0 228.48 0 228.48-18.9Q228.48-20.8 227.95-21.63 227.43-22.45 226.43-22.45L226.43-22.45Q224.33-22.45 222.28-18.5L222.28-18.5 222.28 0 216.13 0 216.13-26.45 221.48-26.45 221.93-23Q223.28-25.1 224.8-26.13 226.33-27.15 228.48-27.15L228.48-27.15ZM253.12-37.7L259.27-37.05 259.27 0 253.82 0 253.52-3.05Q251.17 0.75 247.47 0.75L247.47 0.75Q243.37 0.75 241.2-2.93 239.02-6.6 239.02-13.2L239.02-13.2Q239.02-17.4 240.15-20.58 241.27-23.75 243.27-25.45 245.27-27.15 247.87-27.15L247.87-27.15Q251.07-27.15 253.12-24.5L253.12-24.5 253.12-37.7ZM249.22-3.9Q250.37-3.9 251.3-4.7 252.22-5.5 253.12-7L253.12-7 253.12-19.85Q251.52-22.55 249.47-22.55L249.47-22.55Q245.42-22.55 245.42-13.25L245.42-13.25Q245.42-8.2 246.42-6.05 247.42-3.9 249.22-3.9L249.22-3.9ZM272.32-27.15Q277.02-27.15 280.27-24.05L280.27-24.05 277.92-20.7Q276.52-21.7 275.27-22.2 274.02-22.7 272.72-22.7L272.72-22.7Q271.27-22.7 270.45-21.93 269.62-21.15 269.62-19.8L269.62-19.8Q269.62-18.45 270.55-17.63 271.47-16.8 274.27-15.7L274.27-15.7Q277.72-14.35 279.37-12.5 281.02-10.65 281.02-7.55L281.02-7.55Q281.02-3.7 278.32-1.48 275.62 0.75 271.47 0.75L271.47 0.75Q268.77 0.75 266.5-0.23 264.22-1.2 262.52-2.95L262.52-2.95 265.52-6.25Q268.32-3.8 271.22-3.8L271.22-3.8Q272.87-3.8 273.82-4.67 274.77-5.55 274.77-7.1L274.77-7.1Q274.77-8.25 274.37-8.97 273.97-9.7 272.97-10.33 271.97-10.95 269.97-11.7L269.97-11.7Q266.52-13.05 265.05-14.85 263.57-16.65 263.57-19.45L263.57-19.45Q263.57-22.8 265.95-24.98 268.32-27.15 272.32-27.15L272.32-27.15ZM316.22-34.55L316.22-9.7Q316.22-5.15 313.39-2.23 310.57 0.7 305.32 0.7L305.32 0.7Q299.97 0.7 297.17-2.18 294.37-5.05 294.37-9.7L294.37-9.7 294.37-34.55 300.72-34.55 300.72-10Q300.72-7.1 301.82-5.68 302.92-4.25 305.32-4.25L305.32-4.25Q307.67-4.25 308.77-5.68 309.87-7.1 309.87-10L309.87-10 309.87-34.55 316.22-34.55ZM333.91-27.15Q336.76-27.15 338.41-25.1 340.06-23.05 340.06-19.6L340.06-19.6 340.06 0 333.91 0 333.91-18.9Q333.91-20.8 333.39-21.63 332.86-22.45 331.86-22.45L331.86-22.45Q329.76-22.45 327.71-18.5L327.71-18.5 327.71 0 321.56 0 321.56-26.45 326.91-26.45 327.36-23Q328.71-25.1 330.24-26.13 331.76-27.15 333.91-27.15L333.91-27.15ZM355.31-33.05Q353.91-33.05 353.24-32.3 352.56-31.55 352.56-30L352.56-30 352.56-26.45 357.61-26.45 356.91-22 352.56-22 352.56 0 346.41 0 346.41-22 343.11-22 343.11-26.45 346.41-26.45 346.41-29.8Q346.41-33.4 348.51-35.55 350.61-37.7 354.51-37.7L354.51-37.7Q357.56-37.7 360.41-36.2L360.41-36.2 358.71-32.2Q356.96-33.05 355.31-33.05L355.31-33.05ZM369.81-27.15Q374.81-27.15 377.58-23.65 380.36-20.15 380.36-13.25L380.36-13.25Q380.36-6.65 377.56-2.95 374.76 0.75 369.81 0.75L369.81 0.75Q364.86 0.75 362.06-2.88 359.26-6.5 359.26-13.25L359.26-13.25Q359.26-19.95 362.06-23.55 364.86-27.15 369.81-27.15L369.81-27.15ZM369.81-22.5Q367.66-22.5 366.66-20.38 365.66-18.25 365.66-13.25L365.66-13.25Q365.66-8.2 366.66-6.08 367.66-3.95 369.81-3.95L369.81-3.95Q371.96-3.95 372.96-6.08 373.96-8.2 373.96-13.25L373.96-13.25Q373.96-18.3 372.96-20.4 371.96-22.5 369.81-22.5L369.81-22.5ZM390.51 0.75Q387.81 0.75 386.23-0.93 384.66-2.6 384.66-5.4L384.66-5.4 384.66-37.05 390.81-37.7 390.81-5.65Q390.81-5 391.11-4.6 391.41-4.2 392.01-4.2L392.01-4.2Q392.36-4.2 392.68-4.3 393.01-4.4 393.11-4.4L393.11-4.4 394.31-0.2Q392.61 0.75 390.51 0.75L390.51 0.75ZM410.3-37.7L416.45-37.05 416.45 0 411 0 410.7-3.05Q408.35 0.75 404.65 0.75L404.65 0.75Q400.55 0.75 398.38-2.93 396.2-6.6 396.2-13.2L396.2-13.2Q396.2-17.4 397.33-20.58 398.45-23.75 400.45-25.45 402.45-27.15 405.05-27.15L405.05-27.15Q408.25-27.15 410.3-24.5L410.3-24.5 410.3-37.7ZM406.4-3.9Q407.55-3.9 408.48-4.7 409.4-5.5 410.3-7L410.3-7 410.3-19.85Q408.7-22.55 406.65-22.55L406.65-22.55Q402.6-22.55 402.6-13.25L402.6-13.25Q402.6-8.2 403.6-6.05 404.6-3.9 406.4-3.9L406.4-3.9ZM439.85-34.55Q444.2-34.55 447.37-33.23 450.55-31.9 452.52-28.13 454.5-24.35 454.5-17.45L454.5-17.45Q454.5-7.7 450.62-3.85 446.75 0 440.5 0L440.5 0 432.15 0 432.15-34.55 439.85-34.55ZM440.8-29.8L438.5-29.8 438.5-4.75 440.85-4.75Q443.1-4.75 444.62-5.8 446.15-6.85 447.02-9.65 447.9-12.45 447.9-17.45L447.9-17.45Q447.9-22.55 446.97-25.25 446.05-27.95 444.52-28.88 443-29.8 440.8-29.8L440.8-29.8ZM476-6.4Q476-5.1 476.35-4.48 476.7-3.85 477.5-3.45L477.5-3.45 476.25 0.65Q474.2 0.4 472.97-0.45 471.75-1.3 471.15-3.05L471.15-3.05Q468.85 0.75 464.7 0.75L464.7 0.75Q461.4 0.75 459.45-1.48 457.5-3.7 457.5-7.4L457.5-7.4Q457.5-11.7 460.17-13.95 462.85-16.2 467.95-16.2L467.95-16.2 470-16.2 470-18.05Q470-20.55 469.12-21.58 468.25-22.6 466.3-22.6L466.3-22.6Q463.95-22.6 460.45-21.3L460.45-21.3 459.05-25.3Q461.05-26.2 463.2-26.68 465.35-27.15 467.3-27.15L467.3-27.15Q476-27.15 476-18.35L476-18.35 476-6.4ZM466.35-3.7Q468.75-3.7 470-7L470-7 470-12.55 468.55-12.55Q466-12.55 464.82-11.4 463.65-10.25 463.65-7.85L463.65-7.85Q463.65-5.8 464.35-4.75 465.05-3.7 466.35-3.7L466.35-3.7ZM481.79-26.45L487.94-26.45 487.94 0 481.79 0 481.79-26.45ZM484.84-39.65Q486.49-39.65 487.52-38.6 488.54-37.55 488.54-35.9L488.54-35.9Q488.54-34.3 487.52-33.25 486.49-32.2 484.84-32.2L484.84-32.2Q483.19-32.2 482.17-33.25 481.14-34.3 481.14-35.9L481.14-35.9Q481.14-37.55 482.17-38.6 483.19-39.65 484.84-39.65L484.84-39.65ZM499.24 0.75Q496.54 0.75 494.97-0.93 493.39-2.6 493.39-5.4L493.39-5.4 493.39-37.05 499.54-37.7 499.54-5.65Q499.54-5 499.84-4.6 500.14-4.2 500.74-4.2L500.74-4.2Q501.09-4.2 501.42-4.3 501.74-4.4 501.84-4.4L501.84-4.4 503.04-0.2Q501.34 0.75 499.24 0.75L499.24 0.75ZM524.74-26.45L517.74 0.1Q516.44 4.9 513.54 7.65 510.64 10.4 505.79 10.85L505.79 10.85 505.09 6.5Q508.24 5.85 509.81 4.42 511.39 3 512.29 0L512.29 0 509.99 0 503.29-26.45 509.54-26.45 513.94-4.1 518.64-26.45 524.74-26.45ZM530.14-7.05Q531.84-7.05 532.89-5.9 533.94-4.75 533.94-3.15L533.94-3.15Q533.94-1.55 532.89-0.4 531.84 0.75 530.14 0.75L530.14 0.75Q528.49 0.75 527.41-0.4 526.34-1.55 526.34-3.15L526.34-3.15Q526.34-4.75 527.41-5.9 528.49-7.05 530.14-7.05L530.14-7.05ZM542.63-21.05L538.58-21.05 537.88-34.55 543.33-34.55 542.63-21.05ZM552.23-21.05L548.18-21.05 547.48-34.55 552.93-34.55 552.23-21.05Z" opacity="1" transform="matrix(1,0,0,1,0,0)" fill="#000000" class="slogan-text-1" data-fill-palette-color="secondary" id="text-1"></path></svg></g></svg></g></svg></g></svg></g><g transform="matrix(1,0,0,1,36.672,0)"><svg viewBox="0 0 118.656 79.104" height="79.104" width="118.656"><g><svg xmlns="http://www.w3.org/2000/svg" xmlns:xlink="http://www.w3.org/1999/xlink" version="1.1" viewBox="0 15.999999999999998 96 64" x="0" y="0" height="79.104" width="118.656" class="icon-icon-0" data-fill-palette-color="accent" id="icon-0"><path d="M82 80h-68c-7.72 0-14-6.28-14-14v-4c0-7.72 6.28-14 14-14h68c7.72 0 14 6.28 14 14v4c0 7.72-6.28 14-14 14zM14 52c-5.512 0-10 4.488-10 10v4c0 5.512 4.488 10 10 10h68c5.512 0 10-4.488 10-10v-4c0-5.512-4.488-10-10-10h-68z" fill="#000000" data-fill-palette-color="accent"></path><path d="M3.656 57.944c-0.264 0-0.532-0.056-0.792-0.164-1.016-0.436-1.484-1.612-1.044-2.624l16.344-37.948c0.316-0.732 1.036-1.208 1.836-1.208h56c0.8 0 1.524 0.476 1.836 1.212l16.168 37.676c0.432 1.016-0.036 2.188-1.048 2.624-1.028 0.428-2.2-0.032-2.628-1.048l-15.648-36.464h-53.364l-15.828 36.736c-0.32 0.756-1.06 1.208-1.832 1.208z" fill="#000000" data-fill-palette-color="accent"></path><path d="M20 68h-8c-1.104 0-2-0.9-2-2s0.896-2 2-2h8c1.104 0 2 0.9 2 2s-0.896 2-2 2z" fill="#000000" data-fill-palette-color="accent"></path><path d="M36 68h-8c-1.104 0-2-0.9-2-2s0.896-2 2-2h8c1.104 0 2 0.9 2 2s-0.896 2-2 2z" fill="#000000" data-fill-palette-color="accent"></path><path d="M52 68h-8c-1.104 0-2-0.9-2-2s0.896-2 2-2h8c1.1 0 2 0.9 2 2s-0.9 2-2 2z" fill="#000000" data-fill-palette-color="accent"></path><path d="M68 68h-8c-1.1 0-2-0.9-2-2s0.9-2 2-2h8c1.1 0 2 0.9 2 2s-0.9 2-2 2z" fill="#000000" data-fill-palette-color="accent"></path><path d="M84 68h-8c-1.1 0-2-0.9-2-2s0.9-2 2-2h8c1.1 0 2 0.9 2 2s-0.9 2-2 2z" fill="#000000" data-fill-palette-color="accent"></path></svg></g></svg></g><g></g></svg></g></svg></g></svg></g><defs></defs></svg><rect width="320" height="360" fill="none" stroke="none" visibility="hidden"></rect></g></svg></g></svg>